<svg width="374" height="250" viewBox="0 0 374 250" fill="none" xmlns="http://www.w3.org/2000/svg">
<g clip-path="url(#clip0_1_1959)">
<path fill-rule="evenodd" clip-rule="evenodd" d="M23.7076 20.5808C46.0036 -1.36738 84.383 -3.49025 129.095 11.8255C147.445 18.0982 166.767 27.2853 186.304 39.1349C158.839 55.5181 130.978 76.9746 104.676 102.857C78.3742 128.739 56.486 156.252 39.671 183.454C28.1332 163.724 19.2459 144.271 13.2612 125.812C-1.32302 80.8605 1.41151 42.5171 23.6956 20.5808H23.7076ZM38.5196 185.301C-1.70682 116.973 -10.4142 51.4283 22.3523 19.2016C55.0947 -13.0251 120.496 -3.29835 188.187 38.0195C256.527 -2.20693 322.072 -10.9143 354.298 21.8522C386.537 54.5946 376.798 119.996 335.48 187.687C375.707 256.027 384.402 321.571 351.648 353.798C318.905 386.025 253.504 376.298 185.813 334.98C117.473 375.207 51.9284 383.902 19.7017 351.148C-12.525 318.405 -2.79823 253.004 38.5196 185.313V185.301ZM183.954 333.829C164.224 345.367 144.771 354.242 126.313 360.227C81.3606 374.811 43.0172 372.076 21.081 349.792C-0.867269 327.484 -2.99013 289.105 12.3257 244.393C18.5983 226.043 27.7854 206.733 39.635 187.184C56.0182 214.649 77.4747 242.51 103.357 268.812C129.239 295.114 156.752 317.014 183.954 333.817V333.829ZM185.837 332.713C158.503 315.922 130.786 293.938 104.724 267.468C78.6621 240.963 57.1336 212.91 40.7744 185.313C57.5654 157.991 79.5496 130.286 106.031 104.212C132.513 78.15 160.578 56.6215 188.163 40.2623C215.509 57.0533 243.214 79.0375 269.276 105.507C295.338 132.013 316.878 160.066 333.238 187.663C316.435 214.985 294.45 242.702 267.969 268.764C241.487 294.826 213.434 316.366 185.837 332.725V332.713ZM187.696 333.853C207.245 345.702 226.555 354.89 244.905 361.174C289.617 376.478 327.996 374.355 350.292 352.419C372.6 330.471 375.323 292.127 360.739 247.175C354.742 228.717 345.867 209.264 334.341 189.534C317.526 216.736 295.626 244.261 269.336 270.131C243.022 296.025 215.161 317.47 187.696 333.853ZM334.377 185.792C346.215 166.255 355.402 146.933 361.686 128.583C376.99 83.8709 374.867 45.4915 352.931 23.1954C330.983 0.887407 292.639 -1.83513 247.687 12.761C229.229 18.7338 209.776 27.6211 190.046 39.1469C217.248 55.9739 244.773 77.8621 270.643 104.152C296.537 130.466 317.982 158.327 334.365 185.792H334.377ZM187 95.2168L188.487 148.888C188.753 158.515 192.697 167.675 199.507 174.485C206.317 181.295 215.476 185.238 225.104 185.504L278.751 186.98L225.092 188.467C215.464 188.733 206.305 192.676 199.495 199.486C192.685 206.296 188.741 215.456 188.475 225.083L186.988 278.754L185.501 225.083C185.235 215.456 181.291 206.296 174.481 199.486C167.671 192.676 158.512 188.733 148.884 188.467L95.2492 186.98L148.908 185.504C158.536 185.238 167.695 181.295 174.505 174.485C181.315 167.675 185.259 158.515 185.525 148.888L187.012 95.2168H187Z" fill="#546272"/>
</g>
<defs>
<clipPath id="clip0_1_1959">
<rect width="373" height="373" fill="white" transform="translate(0.5)"/>
</clipPath>
</defs>
</svg>
