<svg width="18" height="21" viewBox="0 0 18 21" fill="none" xmlns="http://www.w3.org/2000/svg">
<g clip-path="url(#clip0_1_2346)">
<path fill-rule="evenodd" clip-rule="evenodd" d="M12.7675 5.65226C12.7675 7.35365 11.28 8.88004 9.24809 8.88004C7.21615 8.88004 5.72865 7.35365 5.72865 5.65226C5.72865 3.9606 7.21615 2.44393 9.24809 2.44393C11.28 2.44393 12.7675 3.9606 12.7675 5.65226ZM14.2259 5.65226C14.2259 8.23837 11.9898 10.3384 9.24809 10.3384C6.49671 10.3384 4.27032 8.23837 4.27032 5.65226C4.27032 3.07587 6.50643 0.985596 9.24809 0.985596C11.9995 0.985596 14.2259 3.07587 14.2259 5.65226ZM9.24809 18.3884H2.21893C2.31615 16.7064 2.73421 15.287 3.62865 14.2564C4.63004 13.0898 6.33143 12.2925 9.24809 12.2925C11.8828 12.2925 13.6134 13.0898 14.6925 14.2662C15.6715 15.4247 16.2269 16.8819 16.2675 18.3981H9.24809V18.3884ZM9.24809 10.8342C6.06893 10.8342 3.89115 11.7189 2.52032 13.3037C1.17865 14.8592 0.74115 16.9592 0.74115 19.1273C0.74115 19.5259 1.07171 19.8564 1.47032 19.8564H17.0259C17.2193 19.8564 17.4047 19.7796 17.5415 19.6429C17.6782 19.5061 17.755 19.3206 17.755 19.1273C17.755 16.9203 17.1717 14.83 15.762 13.2939C14.3523 11.7384 12.1842 10.8342 9.24809 10.8342Z" fill="#546272"/>
</g>
<defs>
<clipPath id="clip0_1_2346">
<rect width="17.5" height="20" fill="white" transform="translate(0.498108 0.41626)"/>
</clipPath>
</defs>
</svg>
